<svg width="100" height="100" viewBox="0 0 100 100" fill="none" xmlns="http://www.w3.org/2000/svg">
<g clip-path="url(#clip0_334_14)">
<path d="M51.6035 26.6816C48.2507 26.6816 45.3861 25.5098 43.0098 23.166C40.666 20.8223 39.4941 18.0065 39.4941 14.7188C39.4941 11.4635 40.666 8.68034 43.0098 6.36914C45.3861 4.05794 48.2507 2.90234 51.6035 2.90234C55.0866 2.90234 57.9837 4.04167 60.2949 6.32031C62.6387 8.56641 63.8105 11.3659 63.8105 14.7188C63.8105 18.0391 62.6387 20.8711 60.2949 23.2148C57.9512 25.526 55.054 26.6816 51.6035 26.6816ZM62.3945 28.1953V74.6797C62.3945 82.362 60.2786 88.2376 56.0469 92.3066C51.8477 96.3757 46.1022 98.4102 38.8105 98.4102C33.7975 98.4102 29.8262 97.515 26.8965 95.7246C23.9668 93.9342 22.502 91.3301 22.502 87.9121C22.502 85.5033 23.2181 83.5013 24.6504 81.9062C26.0501 80.3112 28.0358 79.5137 30.6074 79.5137C33.9277 79.5137 36.3854 81.0762 37.9805 84.2012C35.3112 88.4655 33.9766 91.5579 33.9766 93.4785C33.9766 94.5853 34.3021 95.4805 34.9531 96.1641C35.6367 96.8477 36.4505 97.1895 37.3945 97.1895C38.6641 97.1895 39.5592 96.3919 40.0801 94.7969C40.6335 93.2018 40.9102 90.2396 40.9102 85.9102V37.7168C40.9102 36.8704 40.8939 36.252 40.8613 35.8613C40.8613 35.4382 40.8125 34.8848 40.7148 34.2012C40.6497 33.5176 40.5195 32.9967 40.3242 32.6387C40.1289 32.2806 39.8522 31.8737 39.4941 31.418C39.1686 30.9622 38.7454 30.6204 38.2246 30.3926C37.7038 30.1322 37.0365 29.9043 36.2227 29.709C35.4414 29.4811 34.5299 29.3184 33.4883 29.2207V28.1953H62.3945Z" fill="black"/>
<circle cx="51" cy="15" r="11" fill="#FFCC00"/>
</g>
<defs>
<clipPath id="clip0_334_14">
<rect width="100" height="100" fill="white"/>
</clipPath>
</defs>
</svg>
